<svg width="140" height="140" viewBox="0 0 140 140" fill="none" xmlns="http://www.w3.org/2000/svg">
<g filter="url(#filter0_d_206_2132)">
<path d="M56.6416 65.8584C55.5432 64.7599 54.0534 64.1428 52.5 64.1428C50.9465 64.1428 49.4567 64.7599 48.3583 65.8584C47.2599 66.9568 46.6428 68.4466 46.6428 70C46.6428 71.5535 47.2599 73.0433 48.3583 74.1417L65.8583 91.6417C66.4034 92.1823 67.0498 92.6101 67.7605 92.9004C68.4712 93.1907 69.2323 93.3378 70 93.3334C70.7985 93.308 71.5834 93.1189 72.3059 92.7778C73.0284 92.4366 73.673 91.9506 74.2 91.35L115.033 44.6834C115.976 43.5128 116.431 42.0234 116.302 40.5259C116.174 39.0283 115.472 37.6381 114.344 36.6451C113.216 35.6521 111.747 35.133 110.246 35.1961C108.744 35.2591 107.325 35.8994 106.283 36.9834L70 78.9834L56.6416 65.8584Z" fill="white"/>
<path d="M122.5 64.1667C120.953 64.1667 119.469 64.7813 118.375 65.8753C117.281 66.9693 116.667 68.453 116.667 70.0001C116.667 82.3769 111.75 94.2467 102.998 102.998C94.2466 111.75 82.3768 116.667 70 116.667C60.7838 116.663 51.7753 113.93 44.1103 108.812C36.4453 103.695 30.467 96.4231 26.9295 87.9129C23.3919 79.4027 22.4533 70.0356 24.2322 60.9928C26.011 51.9499 30.4276 43.6362 36.925 37.1001C41.2458 32.7215 46.3965 29.2487 52.0757 26.8848C57.7549 24.521 63.8485 23.3136 70 23.3334C73.7301 23.3568 77.4466 23.7871 81.0833 24.6167C81.8444 24.8522 82.6456 24.9292 83.4375 24.8431C84.2295 24.757 84.9954 24.5096 85.6881 24.1161C86.3808 23.7227 86.9856 23.1915 87.4651 22.5554C87.9447 21.9193 88.2888 21.1916 88.4764 20.4174C88.664 19.6432 88.691 18.8387 88.5557 18.0537C88.4205 17.2686 88.1259 16.5195 87.6901 15.8527C87.2543 15.1858 86.6865 14.6153 86.0218 14.1763C85.357 13.7373 84.6094 13.4391 83.825 13.3001C79.2934 12.234 74.6553 11.686 70 11.6667C58.4753 11.7266 47.2266 15.199 37.6734 21.6456C28.1202 28.0922 20.6907 37.2241 16.3224 47.889C11.954 58.5539 10.8427 70.2738 13.1287 81.5697C15.4146 92.8655 20.9954 103.231 29.1667 111.358C39.9974 122.194 54.6796 128.298 70 128.333C85.471 128.333 100.308 122.188 111.248 111.248C122.188 100.308 128.333 85.471 128.333 70.0001C128.333 68.453 127.719 66.9693 126.625 65.8753C125.531 64.7813 124.047 64.1667 122.5 64.1667Z" fill="white"/>
</g>
<defs>
<filter id="filter0_d_206_2132" x="-3.03033" y="-1.33325" width="146.364" height="146.667" filterUnits="userSpaceOnUse" color-interpolation-filters="sRGB">
<feFlood flood-opacity="0" result="BackgroundImageFix"/>
<feColorMatrix in="SourceAlpha" type="matrix" values="0 0 0 0 0 0 0 0 0 0 0 0 0 0 0 0 0 0 127 0" result="hardAlpha"/>
<feOffset dy="2"/>
<feGaussianBlur stdDeviation="7.5"/>
<feComposite in2="hardAlpha" operator="out"/>
<feColorMatrix type="matrix" values="0 0 0 0 0.0666667 0 0 0 0 0.811765 0 0 0 0 0.231373 0 0 0 1 0"/>
<feBlend mode="normal" in2="BackgroundImageFix" result="effect1_dropShadow_206_2132"/>
<feBlend mode="normal" in="SourceGraphic" in2="effect1_dropShadow_206_2132" result="shape"/>
</filter>
</defs>
</svg>
