<svg width="15" height="15" viewBox="0 0 15 15" fill="none" xmlns="http://www.w3.org/2000/svg">
<g clip-path="url(#clip0_193_861)">
<path d="M13.2692 11.5385H12.6923V7.5C12.6918 6.3893 12.3351 5.30803 11.6747 4.41501C11.0143 3.52198 10.0849 2.86427 9.02307 2.53846C9.1571 2.29018 9.2284 2.0129 9.23076 1.73077C9.23076 1.27174 9.04842 0.831513 8.72384 0.506931C8.39925 0.182348 7.95903 0 7.5 0C7.04097 0 6.60075 0.182348 6.27616 0.506931C5.95158 0.831513 5.76924 1.27174 5.76924 1.73077C5.7716 2.0129 5.8429 2.29018 5.97693 2.53846C4.91509 2.86427 3.98571 3.52198 3.32529 4.41501C2.66487 5.30803 2.30821 6.3893 2.3077 7.5V11.5385H1.73078C1.57777 11.5385 1.43103 11.5992 1.32284 11.7074C1.21464 11.8156 1.15386 11.9624 1.15386 12.1154C1.15386 12.2684 1.21464 12.4151 1.32284 12.5233C1.43103 12.6315 1.57777 12.6923 1.73078 12.6923H5.19231C5.19231 13.3043 5.43544 13.8913 5.86822 14.3241C6.30099 14.7569 6.88796 15 7.5 15C8.11204 15 8.69901 14.7569 9.13178 14.3241C9.56456 13.8913 9.80769 13.3043 9.80769 12.6923H13.2692C13.4222 12.6923 13.569 12.6315 13.6772 12.5233C13.7854 12.4151 13.8461 12.2684 13.8461 12.1154C13.8461 11.9624 13.7854 11.8156 13.6772 11.7074C13.569 11.5992 13.4222 11.5385 13.2692 11.5385ZM6.92308 1.73077C6.92308 1.61666 6.95691 1.50512 7.02031 1.41025C7.0837 1.31537 7.1738 1.24143 7.27922 1.19776C7.38464 1.1541 7.50064 1.14267 7.61255 1.16493C7.72446 1.18719 7.82726 1.24214 7.90795 1.32282C7.98863 1.40351 8.04358 1.5063 8.06584 1.61822C8.0881 1.73013 8.07667 1.84613 8.03301 1.95155C7.98934 2.05697 7.9154 2.14707 7.82052 2.21046C7.72565 2.27386 7.6141 2.30769 7.5 2.30769C7.34699 2.30769 7.20025 2.24691 7.09206 2.13872C6.98386 2.03052 6.92308 1.88378 6.92308 1.73077ZM3.46155 11.5385V7.5C3.46155 6.42893 3.88703 5.40174 4.64438 4.64438C5.40174 3.88702 6.42894 3.46154 7.5 3.46154C8.57106 3.46154 9.59826 3.88702 10.3556 4.64438C11.113 5.40174 11.5385 6.42893 11.5385 7.5V11.5385H3.46155ZM7.5 13.8462C7.19398 13.8462 6.9005 13.7246 6.68411 13.5082C6.46772 13.2918 6.34616 12.9983 6.34616 12.6923H8.65384C8.65384 12.9983 8.53228 13.2918 8.31589 13.5082C8.0995 13.7246 7.80602 13.8462 7.5 13.8462ZM11.9885 2.19808C11.881 2.30617 11.8207 2.45239 11.8207 2.60481C11.8207 2.75722 11.881 2.90344 11.9885 3.01154C12.5795 3.59971 13.048 4.29926 13.3669 5.0697C13.6857 5.84015 13.8486 6.66618 13.8461 7.5C13.8461 7.65301 13.9069 7.79975 14.0151 7.90795C14.1233 8.01614 14.2701 8.07692 14.4231 8.07692C14.5761 8.07692 14.7228 8.01614 14.831 7.90795C14.9392 7.79975 15 7.65301 15 7.5C15.0021 6.51485 14.809 5.53904 14.4317 4.62899C14.0544 3.71894 13.5005 2.89272 12.8019 2.19808C12.6938 2.09062 12.5476 2.03031 12.3952 2.03031C12.2428 2.03031 12.0965 2.09062 11.9885 2.19808ZM3.01155 3.01154C3.10606 2.90117 3.15545 2.75921 3.14984 2.61401C3.14424 2.46881 3.08404 2.33108 2.9813 2.22833C2.87855 2.12558 2.74082 2.06539 2.59562 2.05978C2.45042 2.05417 2.30846 2.10356 2.19809 2.19808C1.49952 2.89272 0.945571 3.71894 0.568284 4.62899C0.190997 5.53904 -0.00214768 6.51485 1.80127e-05 7.5C1.80127e-05 7.65301 0.0608006 7.79975 0.168994 7.90795C0.277188 8.01614 0.423931 8.07692 0.57694 8.07692C0.729949 8.07692 0.876691 8.01614 0.984885 7.90795C1.09308 7.79975 1.15386 7.65301 1.15386 7.5C1.15137 6.66618 1.31428 5.84015 1.63315 5.0697C1.95202 4.29926 2.42052 3.59971 3.01155 3.01154Z" fill="#DCEBE9"/>
</g>
<defs>
<clipPath id="clip0_193_861">
<rect width="15" height="15" fill="white"/>
</clipPath>
</defs>
</svg>
