<svg width="44" height="44" viewBox="0 0 44 44" fill="none" xmlns="http://www.w3.org/2000/svg">
<circle cx="22" cy="22" r="22" fill="#ECDF66"/>
<path d="M32 29H31V22C30.9991 20.0748 30.3809 18.2006 29.2362 16.6527C28.0915 15.1048 26.4805 13.9647 24.64 13.4C24.8723 12.9697 24.9959 12.489 25 12C25 11.2044 24.6839 10.4413 24.1213 9.87868C23.5587 9.31607 22.7957 9 22 9C21.2044 9 20.4413 9.31607 19.8787 9.87868C19.3161 10.4413 19 11.2044 19 12C19.0041 12.489 19.1277 12.9697 19.36 13.4C17.5195 13.9647 15.9085 15.1048 14.7638 16.6527C13.6191 18.2006 13.0009 20.0748 13 22V29H12C11.7348 29 11.4804 29.1054 11.2929 29.2929C11.1054 29.4804 11 29.7348 11 30C11 30.2652 11.1054 30.5196 11.2929 30.7071C11.4804 30.8946 11.7348 31 12 31H18C18 32.0609 18.4214 33.0783 19.1716 33.8284C19.9217 34.5786 20.9391 35 22 35C23.0609 35 24.0783 34.5786 24.8284 33.8284C25.5786 33.0783 26 32.0609 26 31H32C32.2652 31 32.5196 30.8946 32.7071 30.7071C32.8946 30.5196 33 30.2652 33 30C33 29.7348 32.8946 29.4804 32.7071 29.2929C32.5196 29.1054 32.2652 29 32 29ZM21 12C21 11.8022 21.0587 11.6089 21.1685 11.4444C21.2784 11.28 21.4346 11.1518 21.6173 11.0761C21.8 11.0004 22.0011 10.9806 22.1951 11.0192C22.3891 11.0578 22.5673 11.153 22.7071 11.2929C22.847 11.4327 22.9422 11.6109 22.9808 11.8049C23.0194 11.9989 22.9996 12.2 22.9239 12.3827C22.8482 12.5654 22.72 12.7216 22.5556 12.8315C22.3911 12.9414 22.1978 13 22 13C21.7348 13 21.4804 12.8946 21.2929 12.7071C21.1054 12.5196 21 12.2652 21 12ZM15 29V22C15 20.1435 15.7375 18.363 17.0503 17.0503C18.363 15.7375 20.1435 15 22 15C23.8565 15 25.637 15.7375 26.9497 17.0503C28.2625 18.363 29 20.1435 29 22V29H15ZM22 33C21.4696 33 20.9609 32.7893 20.5858 32.4142C20.2107 32.0391 20 31.5304 20 31H24C24 31.5304 23.7893 32.0391 23.4142 32.4142C23.0391 32.7893 22.5304 33 22 33ZM29.78 12.81C29.5938 12.9974 29.4892 13.2508 29.4892 13.515C29.4892 13.7792 29.5938 14.0326 29.78 14.22C30.8044 15.2395 31.6165 16.4521 32.1692 17.7875C32.7219 19.1229 33.0043 20.5547 33 22C33 22.2652 33.1054 22.5196 33.2929 22.7071C33.4804 22.8946 33.7348 23 34 23C34.2652 23 34.5196 22.8946 34.7071 22.7071C34.8946 22.5196 35 22.2652 35 22C35.0038 20.2924 34.669 18.601 34.015 17.0236C33.361 15.4462 32.4009 14.014 31.19 12.81C31.0026 12.6237 30.7492 12.5192 30.485 12.5192C30.2208 12.5192 29.9674 12.6237 29.78 12.81ZM14.22 14.22C14.3838 14.0287 14.4694 13.7826 14.4597 13.5309C14.45 13.2793 14.3457 13.0405 14.1676 12.8624C13.9895 12.6843 13.7507 12.58 13.4991 12.5703C13.2474 12.5606 13.0013 12.6462 12.81 12.81C11.5991 14.014 10.639 15.4462 9.985 17.0236C9.33103 18.601 8.99625 20.2924 9 22C9 22.2652 9.10536 22.5196 9.29289 22.7071C9.48043 22.8946 9.73478 23 10 23C10.2652 23 10.5196 22.8946 10.7071 22.7071C10.8946 22.5196 11 22.2652 11 22C10.9957 20.5547 11.2781 19.1229 11.8308 17.7875C12.3835 16.4521 13.1956 15.2395 14.22 14.22Z" fill="#484208"/>
</svg>
