<svg width="73" height="76" viewBox="0 0 73 76" fill="none" xmlns="http://www.w3.org/2000/svg">
<g clip-path="url(#clip0_231_161)">
<g filter="url(#filter0_d_231_161)">
<path d="M59.9953 56.3526C60.9258 55.8349 61.795 55.323 62.4771 54.5454C62.9703 53.9831 63.2443 53.3709 62.8821 52.6069C62.7553 52.3393 62.8422 52.0279 63.0586 51.8695C63.2253 51.7474 63.517 51.697 63.7144 51.7543C63.9151 51.8126 64.1217 52.0097 64.2315 52.2023C64.5252 52.7171 64.509 53.2742 64.3015 53.823C64.0858 54.3925 63.7164 54.8547 63.2927 55.2733C62.417 56.1383 61.4016 56.7962 60.3202 57.3553C59.4523 57.8039 58.6159 58.3059 57.9507 59.0453C57.3073 59.7603 56.8874 60.545 57.3361 61.5566C57.4539 61.8223 57.2713 62.2545 57.0393 62.3991C56.8409 62.5229 56.5001 62.4719 56.2976 62.2189C56.1233 62.001 55.971 61.7402 55.8905 61.4727C55.6921 60.8129 55.8836 60.2009 56.2142 59.6285C56.6534 58.868 57.2692 58.2703 57.9381 57.7282C58.3156 57.4222 58.7122 57.1409 59.1135 56.8383C55.059 47.8206 51.0079 38.8101 46.9405 29.7633C46.8611 29.8785 46.812 29.9446 46.768 30.0139C43.6498 34.937 40.5331 39.8613 37.4091 44.7805C37.2871 44.9723 37.3033 45.0962 37.421 45.2746C38.1814 46.4287 38.9248 47.5946 39.6853 48.7486C40.2229 49.5643 40.5527 50.4529 40.6111 51.4347C40.7157 53.1965 39.8688 54.8326 37.9701 55.2914C37.4012 55.4289 36.7956 55.4707 36.2091 55.4573C33.9635 55.4055 32.3544 53.3137 32.7734 51.0455C32.9392 50.1478 33.3297 49.3454 33.7932 48.5857C34.4844 47.453 35.2192 46.3479 35.9432 45.2365C36.0466 45.0778 36.0678 44.9654 35.9567 44.7923C32.7945 39.8642 29.6388 34.9318 26.481 30.0007C26.4397 29.9363 26.3867 29.8797 26.3174 29.7915C22.2367 38.8385 18.1738 47.8459 14.1032 56.8709C14.2381 56.9669 14.3561 57.0515 14.475 57.135C15.2315 57.6649 15.9423 58.2489 16.5344 58.971C16.9381 59.4633 17.2731 59.9973 17.3751 60.6451C17.4682 61.2367 17.3479 61.7815 16.943 62.2327C16.7416 62.4571 16.4095 62.5542 16.2225 62.4386C15.9808 62.2889 15.8537 62.0502 15.862 61.7581C15.865 61.6411 15.9263 61.5271 15.9417 61.409C15.981 61.1091 16.0599 60.8026 16.0313 60.5081C15.9717 59.8949 15.617 59.4211 15.2087 58.9949C14.5348 58.2918 13.7199 57.7967 12.8689 57.3558C11.7549 56.7785 10.7105 56.0963 9.82668 55.1837C9.36581 54.7079 8.96793 54.1822 8.82513 53.5091C8.70995 52.9662 8.77715 52.4454 9.13045 52.0002C9.3545 51.7179 9.82708 51.6385 10.1056 51.8133C10.3225 51.9491 10.4633 52.3817 10.3278 52.6705C10.0058 53.3557 10.2244 53.9245 10.6527 54.4507C11.3151 55.2646 12.1916 55.7895 13.0853 56.2847C13.1303 56.3097 13.2423 56.259 13.2916 56.2103C13.3468 56.1558 13.3668 56.0635 13.4015 55.9873C17.5273 46.8621 21.6531 37.7369 25.7792 28.6118C25.9116 28.3193 26.0453 28.0275 26.1992 27.6897C29.7012 33.1661 33.1773 38.6021 36.6816 44.0823C40.1681 38.5942 43.6249 33.1529 47.1106 27.6659C51.4199 37.2601 55.6982 46.7857 59.9953 56.3526ZM47.0635 32.7465C50.5287 40.6899 53.9778 48.5961 57.438 56.5278C57.2562 56.5902 57.1031 56.6409 56.9513 56.695C56.0187 57.0277 55.1648 57.4951 54.4377 58.1914C52.9976 59.5707 52.9991 61.5673 53.7024 62.987C54.2505 64.0934 55.2366 64.539 56.3897 64.6493C57.1339 64.7206 57.8465 64.5707 58.5075 64.211C59.9345 63.4341 60.1548 62.411 60.0129 61.1239C59.9845 60.8673 59.9157 60.6102 59.8281 60.3673C59.7441 60.1345 59.6118 59.9201 59.491 59.6783C59.8323 59.455 60.1864 59.2262 60.5374 58.9926C61.9562 58.0489 63.3432 57.0586 64.5344 55.8201C64.9863 55.3502 65.4036 54.8323 65.7644 54.2864C66.7908 52.7326 66.2767 50.5845 64.989 49.5043C63.8348 48.5363 62.0292 48.6209 61.0133 49.6858C59.8536 50.9011 60.4857 52.6139 61.337 53.2122C61.5276 53.3462 61.7593 53.4188 62.0155 53.5401C61.782 54.0716 61.2789 54.3447 60.8062 54.711C60.7477 54.5909 60.6979 54.4966 60.655 54.3993C56.9442 45.963 53.2348 37.5262 49.5229 29.0906C49.2907 28.563 49.0602 28.033 48.7947 27.5227C48.3313 26.6323 47.7161 26.361 46.7469 26.5603C46.2649 26.6595 45.9077 26.8998 45.6351 27.3362C42.7382 31.9718 39.8295 36.5995 36.9238 41.2294C36.8711 41.3135 36.8171 41.3966 36.7449 41.5093C36.6728 41.4047 36.6196 41.3337 36.5723 41.2585C33.6557 36.613 30.7391 31.9674 27.8234 27.3214C27.1097 26.1843 25.3698 26.2017 24.7571 27.3983C24.1609 28.5629 23.6432 29.7706 23.115 30.9703C19.6754 38.7838 16.2421 46.6002 12.8064 54.4154C12.7696 54.4993 12.7295 54.5815 12.6757 54.6973C12.1929 54.3707 11.7231 54.071 11.4267 53.5134C12.3473 53.3057 12.7878 52.6695 13 51.8511C13.3092 50.6595 12.7166 49.553 11.546 49.0619C9.92528 48.3818 8.20057 49.1522 7.47726 50.8953C6.95644 52.1501 7.05388 53.3526 7.82137 54.4847C8.44698 55.4074 9.20987 56.2054 10.0794 56.8746C11.2675 57.7887 12.5049 58.6361 13.722 59.511C13.8103 59.5746 13.9046 59.629 14.0033 59.6923C13.3874 60.4931 13.3111 61.3967 13.4481 62.3383C13.5358 62.9413 13.8675 63.4075 14.3238 63.7802C16.2477 65.3506 18.6604 64.6417 19.6639 63.0291C20.5054 61.677 20.592 59.4605 19.0128 58.0514C18.2034 57.3293 17.2585 56.8862 16.2372 56.5905C16.1861 56.5756 16.1355 56.5585 16.0337 56.5267C19.4929 48.599 22.9444 40.6885 26.4123 32.7406C26.4871 32.8446 26.5428 32.9151 26.5912 32.9905C29.1658 36.9837 31.7384 40.9781 34.3174 44.9685C34.4252 45.1349 34.4192 45.2518 34.3219 45.4155C33.545 46.7249 32.7774 48.0401 32.0051 49.3524C30.4341 52.0219 31.6658 55.567 34.542 56.587C36.2556 57.1949 37.9629 57.1302 39.5949 56.2958C41.0429 55.5554 41.8143 54.2893 42.063 52.6777C42.1793 51.9245 42.1763 51.1669 41.9538 50.4321C41.8549 50.1059 41.7158 49.7845 41.5462 49.4901C40.7579 48.1221 39.9552 46.7629 39.1496 45.4055C39.0563 45.2482 39.0493 45.139 39.1519 44.9803C41.7397 40.9746 44.3218 36.965 46.9057 32.9566C46.9438 32.8973 46.9904 32.8434 47.0635 32.7465Z" fill="#DCEBE9"/>
</g>
<path d="M54.1367 30.2753C54.1134 30.2768 54.0898 30.2784 54.0666 30.28C53.7759 29.618 53.4761 28.9598 53.1992 28.2916C53.1021 28.0566 53.0105 27.8034 53.1733 27.543C53.4312 27.131 53.8088 26.8689 54.2637 26.5677C53.9701 27.8448 54.0205 29.059 54.1367 30.2753ZM53.5367 16.7538C53.1869 15.4792 52.4838 14.5072 51.4642 13.7446C52.2498 13.45 53.0389 13.6757 53.5316 14.3026C54.0308 14.9377 54.0503 15.9384 53.5367 16.7538ZM68.9306 44.6434C69.6325 44.2622 70.6875 44.3277 71.2921 45.0252C71.884 45.708 72.0282 46.7974 71.4667 47.7353C71.0034 46.3638 70.1212 45.3765 68.9306 44.6434ZM63.7302 44.0256C63.9759 43.6284 64.2031 43.2901 64.4013 42.9349C64.906 42.0297 65.2445 41.0768 65.1987 40.0093C65.1383 38.6044 63.8256 37.2172 62.3537 37.3473C61.2003 37.449 60.3479 38.661 60.7039 39.7553C60.8272 40.1344 61.0619 40.4256 61.3927 40.6324C61.6289 40.7797 61.8623 40.7292 62.0216 40.5104C62.1829 40.2886 62.168 40.0073 61.9852 39.821C61.5908 39.4194 61.5337 39.1954 61.7344 38.8362C61.9609 38.4305 62.3351 38.2796 62.8128 38.4013C63.8445 38.6641 64.3552 39.5465 64.1363 40.6849C64.0057 41.3653 63.7054 41.9709 63.3534 42.5537C62.7119 43.616 61.9522 44.5821 61.0907 45.4653C61.0285 45.529 60.9612 45.5873 60.878 45.6653C60.8256 45.5552 60.7843 45.4733 60.7473 45.3897C59.9719 43.6478 59.2046 41.9021 58.4189 40.165C58.0005 39.2404 58.0385 38.3321 58.4759 37.4422C58.6461 37.096 58.8948 36.7888 59.1174 36.4709C59.2286 36.3118 59.373 36.177 59.4827 36.0172C59.7013 35.6978 59.7074 35.4441 59.5238 35.1905C59.3474 34.9469 59.0447 34.8613 58.7065 34.9856C58.0182 35.2392 57.4632 35.6842 57.0039 36.2606C56.9482 36.3305 56.8922 36.4001 56.804 36.5105C56.6177 36.0704 56.4125 35.6821 56.2854 35.2688C55.7054 33.3845 55.347 31.4517 55.1818 29.4854C55.1113 28.649 55.0919 27.7981 55.3332 26.9822C55.4691 26.5228 55.6798 26.084 55.8843 25.6494C55.9854 25.4344 56.072 25.2425 55.9242 25.024C55.7854 24.8186 55.4904 24.7148 55.2419 24.7862C55.1548 24.8112 55.0683 24.846 54.9885 24.89C54.539 25.138 54.0742 25.363 53.6485 25.6488C53.2335 25.9273 52.8593 26.2696 52.4489 26.5985C52.2514 26.1512 52.0377 25.6893 51.8494 25.217C51.8211 25.1458 51.8916 25.0096 51.9503 24.9294C52.8655 23.6782 53.5302 22.3097 53.8187 20.7661C53.9495 20.0666 54.0127 19.3606 53.9134 18.6497C53.881 18.4178 53.9201 18.2294 54.0706 18.0314C54.5947 17.3417 54.9379 16.572 55.0212 15.6853C55.1854 13.9364 53.7086 12.3709 51.9955 12.4908C51.3665 12.535 50.77 12.6894 50.2251 13.0168C50.0957 13.0944 49.9746 13.2063 49.8852 13.3295C49.6716 13.6238 49.713 13.8033 49.9818 14.0533C50.4135 14.4548 50.8665 14.8394 51.2542 15.2828C52.1735 16.3345 52.7418 17.5568 52.8387 18.985C52.9133 20.0849 52.6475 21.1152 52.2397 22.1166C51.8831 22.9921 51.4399 23.8185 50.8286 24.537C50.585 24.8232 50.561 25.0948 50.7107 25.4338C52.1811 28.7612 53.6391 32.0941 55.1093 35.4216C56.8389 39.3362 58.5773 43.2468 60.3111 47.1596C60.4222 47.41 60.5197 47.6778 60.8584 47.6561C61.1323 47.6384 61.3292 47.4004 61.4588 47.0765C61.5561 46.8336 61.6922 46.5833 61.8744 46.4032C62.9853 45.3053 64.3338 44.8377 65.8586 45.006C68.3316 45.2788 69.8168 46.8129 70.6748 49.0938C70.7699 49.3465 70.8416 49.6008 71.1503 49.6401C71.4545 49.6788 71.7058 49.5746 71.8915 49.3168C72.5179 48.4469 72.9319 47.4988 72.9274 46.3953C72.92 44.602 71.4982 43.2166 69.7439 43.2837C68.9324 43.3146 68.2147 43.602 67.5514 44.064C67.4797 44.1138 67.3669 44.1601 67.2923 44.1385C66.1303 43.8028 64.9599 43.7457 63.7302 44.0256Z" fill="#18BF3D"/>
<path d="M18.7737 26.6342C18.8015 26.6135 18.8292 26.5931 18.857 26.5726C19.159 26.849 19.4728 27.1139 19.7594 27.4066C19.9367 27.588 19.991 27.8303 19.8872 28.0807C19.6027 28.7658 19.3143 29.4491 19.0257 30.1323C18.9951 30.2043 18.9512 30.2706 18.9136 30.3396C19.0122 29.091 19.0578 27.8579 18.7737 26.6342ZM19.493 16.7196C18.9797 15.8675 18.9777 14.8635 19.4491 14.2872C19.9178 13.714 20.8505 13.4648 21.5544 13.755C20.5425 14.4955 19.8659 15.466 19.493 16.7196ZM1.55768 47.7295C1.04896 46.8316 1.10392 45.6612 1.6546 45.064C2.24405 44.4248 3.31121 44.223 4.10117 44.637C2.86783 45.3403 2.07903 46.4084 1.55768 47.7295ZM16.2336 36.4743C15.9482 36.1762 15.7091 35.8616 15.4088 35.6294C15.0787 35.374 14.7063 35.1628 14.327 34.9908C13.9811 34.8343 13.6826 34.9464 13.4952 35.2099C13.308 35.4728 13.3236 35.724 13.5675 36.0556C13.6823 36.2118 13.8194 36.3508 13.9482 36.496C14.766 37.4192 15.0798 38.4795 14.7804 39.7052C14.7585 39.7951 14.7281 39.8843 14.6906 39.9687C13.8793 41.7963 13.0662 43.6234 12.2529 45.4502C12.2239 45.515 12.1865 45.576 12.1177 45.7051C11.5928 45.0947 11.0746 44.5316 10.6011 43.9318C9.91554 43.0631 9.33081 42.1242 8.97699 41.0594C8.59212 39.9006 8.86271 39.0462 9.97011 38.4591C10.4335 38.2136 10.9212 38.3478 11.2234 38.745C11.5163 39.1296 11.4819 39.4504 11.1144 39.7631C10.8499 39.988 10.8146 40.2619 11.0165 40.5227C11.1973 40.7564 11.4487 40.7846 11.7176 40.577C12.2827 40.1406 12.4969 39.5559 12.3559 38.849C12.2049 38.0916 11.7567 37.5958 11.0205 37.4155C9.40866 37.0206 7.76138 38.484 7.82712 40.2352C7.86763 41.3122 8.24723 42.2731 8.78396 43.1798C8.94858 43.458 9.12884 43.7268 9.3316 44.0467C9.14542 44.0126 9.00025 43.988 8.85589 43.9592C7.8625 43.7595 6.87594 43.7834 5.90635 44.0875C5.68953 44.1555 5.54057 44.1186 5.35937 43.9931C4.44686 43.3611 3.44137 43.1204 2.36186 43.3823C0.915237 43.7331 -0.0724902 45.2339 0.0963403 46.7504C0.202581 47.7056 0.57456 48.5438 1.12904 49.3083C1.30181 49.5463 1.53152 49.6566 1.8137 49.6479C2.10507 49.6388 2.24049 49.447 2.32306 49.1826C2.72069 47.9088 3.41626 46.8358 4.47801 46.051C6.16316 44.8059 8.71756 44.3518 10.8574 46.1254C11.2008 46.41 11.516 46.7087 11.6145 47.1871C11.6684 47.4486 11.9683 47.658 12.2058 47.658C12.4703 47.6579 12.5812 47.4667 12.6752 47.2536C15.8917 39.971 19.1079 32.688 22.3294 25.4075C22.4774 25.0734 22.4267 24.814 22.2013 24.537C21.2255 23.3378 20.5682 21.9778 20.2964 20.4358C19.9671 18.5694 20.4458 16.9138 21.6175 15.4738C22.0234 14.9748 22.5006 14.5275 22.9898 14.1115C23.4013 13.7619 23.3232 13.3762 22.9787 13.1364C21.44 12.066 18.6689 12.1249 18.052 14.8835C17.8665 15.7131 18.0794 16.4944 18.4505 17.2366C18.4837 17.303 18.5089 17.3787 18.5574 17.4316C19.0479 17.967 19.0874 18.5934 19.0648 19.303C19.013 20.9364 19.5964 22.4127 20.3669 23.8127C20.5856 24.2102 20.8609 24.575 21.1039 24.959C21.1489 25.0302 21.2086 25.1411 21.1842 25.201C20.9893 25.6804 20.7758 26.1519 20.5555 26.6548C19.8263 25.8178 18.9296 25.3004 17.9825 24.8704C17.8019 24.7883 17.5496 24.7771 17.3589 24.8338C17.029 24.9322 16.9148 25.2686 17.097 25.5512C17.8181 26.6702 17.9531 27.9207 17.8691 29.2078C17.7332 31.2935 17.3136 33.3287 16.7257 35.3268C16.6092 35.7232 16.4004 36.0915 16.2336 36.4743Z" fill="#18BF3D"/>
<path d="M43.1187 73.8803C43.518 73.3369 43.6321 72.7837 43.6651 72.1975C43.9836 72.6169 44.0272 73.0932 43.9878 73.588C43.9852 73.6217 43.9398 73.6707 43.9057 73.6803C43.6726 73.7447 43.4374 73.8005 43.1187 73.8803ZM29.3505 73.8432C28.4554 73.7887 28.2988 73.5719 28.5097 72.7459C28.5372 72.6385 28.5701 72.5317 28.6114 72.4293C28.6415 72.3547 28.6895 72.2877 28.7295 72.2173C28.7627 72.8343 28.9956 73.3405 29.3505 73.8432ZM27.3268 73.566C26.944 73.4485 26.5954 73.352 26.2535 73.2351C24.8472 72.7548 23.4761 72.1951 22.2423 71.3337C21.7182 70.9677 21.2426 70.5475 20.8772 70.0109C20.2897 69.1484 20.1703 68.2043 20.5437 67.2407C21.0492 65.9355 22.0067 65.1589 23.3869 65.0167C24.2138 64.9313 24.9067 65.2697 25.4454 65.9153C25.9215 66.4859 26.1842 67.1572 26.2702 67.8971C26.3445 68.5359 26.0285 68.9752 25.4832 69.0284C24.91 69.0843 24.2653 68.5679 24.2226 68.0187C24.2002 67.7327 24.3244 67.5771 24.6768 67.4488C25.0795 67.3024 25.2093 66.8897 24.9539 66.5543C24.7869 66.3353 24.566 66.2992 24.3138 66.3705C23.437 66.6191 22.9602 67.5147 23.1823 68.5015C23.4156 69.5381 24.2558 70.1875 25.3301 70.1619C26.4083 70.1359 27.1656 69.4579 27.3714 68.3403C27.5607 67.3119 27.2701 66.4084 26.6389 65.6251C25.6983 64.4583 24.4935 63.8099 22.9868 63.8804C22.6301 63.8971 22.2459 63.968 21.9304 64.1291C20.3525 64.9357 19.3707 66.2124 19.2031 68.0443C19.1008 69.1625 19.5624 70.1024 20.2479 70.9359C21.0144 71.8676 21.9977 72.5117 23.0338 73.0793C25.0355 74.1757 27.1833 74.8176 29.4128 75.1903C32.3811 75.6869 35.371 75.7665 38.3708 75.6532C40.7487 75.5632 43.1048 75.3167 45.4116 74.6908C47.4962 74.1253 49.4467 73.2647 51.1723 71.9193C51.9003 71.3517 52.5155 70.6811 52.8992 69.8163C53.6028 68.2307 53.1169 66.2363 51.7731 64.9371C49.9458 63.1705 46.2195 63.4227 45.2025 67.026C45.0776 67.4689 45.0484 67.9792 45.1216 68.4336C45.3334 69.7476 46.4361 70.4092 47.7206 70.0605C48.6534 69.8075 49.2214 69.186 49.3309 68.2988C49.4339 67.4659 48.8975 66.6016 48.137 66.3748C47.7881 66.2704 47.4897 66.4169 47.3896 66.7413C47.2871 67.0747 47.4241 67.3249 47.7785 67.4519C48.2141 67.6077 48.3332 67.8977 48.1378 68.3273C48.1338 68.3359 48.1304 68.3444 48.1262 68.3528C47.8764 68.8683 47.2927 69.2005 46.8552 69.0763C46.405 68.9484 46.106 68.342 46.1819 67.7111C46.377 66.092 47.8141 64.8732 49.4 64.9875C49.5533 64.9985 49.7086 65.0303 49.8551 65.0775C51.1979 65.5081 52.2699 67.1769 52.0973 68.5972C52.0033 69.3704 51.5937 69.9907 51.0788 70.5388C50.3266 71.3399 49.4193 71.9233 48.4273 72.3433C47.4432 72.7601 46.4257 73.094 45.4219 73.4617C45.3392 73.492 45.2491 73.5019 45.1514 73.5239C45.1172 73.2053 45.1071 72.9057 45.0498 72.616C44.7878 71.2923 43.8206 70.3821 42.4547 70.156C42.3375 70.1367 42.2205 70.1135 42.1025 70.1044C41.7819 70.0799 41.5635 70.2352 41.5116 70.5165C41.4543 70.8273 41.6032 71.1349 41.8935 71.2012C42.2556 71.284 42.3959 71.518 42.4658 71.8603C42.5951 72.4939 42.4508 73.0167 41.9567 73.4413C41.1959 74.0952 40.3326 74.4575 39.3329 74.4669C37.5619 74.4837 35.791 74.5143 34.02 74.5163C33.4371 74.5168 32.831 74.5371 32.2761 74.3889C31.4755 74.1752 30.6972 73.8329 30.1891 73.0963C29.9439 72.7412 29.8559 72.3347 29.9445 71.8971C30.0127 71.5589 30.1826 71.3233 30.517 71.2155C30.8562 71.1059 31.0104 70.8129 30.929 70.4737C30.8641 70.2029 30.6153 70.0496 30.2776 70.1144C29.9475 70.1777 29.613 70.2487 29.3002 70.3693C28.0351 70.8564 27.3564 71.8592 27.3271 73.2435C27.3252 73.3351 27.3268 73.4268 27.3268 73.566Z" fill="#18BF3D"/>
<path d="M3.84956 24.0498C4.86727 25.0873 5.38691 26.9256 4.8557 28.0577C4.31555 27.8654 3.87021 27.3889 3.69335 26.7757C3.42985 25.8626 3.60867 24.9737 3.84956 24.0498ZM2.60739 27.0833C2.65171 27.1821 2.678 27.2306 2.69589 27.2821C3.0939 28.4264 3.93858 29.0433 5.03991 29.352C5.35036 29.4389 5.57876 29.3166 5.72168 28.9948C6.41462 27.433 6.29917 25.899 5.49578 24.4261C5.21439 23.9105 4.81888 23.4569 4.45085 22.9957C4.33383 22.8488 4.30818 22.7593 4.39115 22.5877C5.6938 19.894 7.31649 17.4173 9.20176 15.1164C9.67103 14.5436 10.1075 13.9408 10.6003 13.3904C10.9551 12.9941 11.3424 12.6058 11.7782 12.3118C12.8666 11.5778 14.7372 11.8662 15.6155 12.8543C16.0281 13.3187 16.1699 13.8642 16.0045 14.4662C15.7854 15.264 15.3222 15.891 14.6154 16.3018C13.682 16.8446 12.6053 16.3033 12.4279 15.2194C12.3193 14.556 12.819 13.9345 13.4296 13.9736C13.7582 13.9946 13.8643 14.1177 13.8413 14.451C13.8149 14.8342 13.9906 15.0725 14.3383 15.1242C14.6479 15.1704 14.8576 14.9929 14.9469 14.6245C15.0237 14.3085 14.9738 14.0116 14.8319 13.7293C14.4099 12.8908 13.2321 12.5442 12.4367 13.0212C11.2958 13.7054 10.9494 15.2685 11.6924 16.3797C12.7719 17.9944 14.8723 18.0665 16.1764 16.5286C16.7293 15.8766 17.0723 15.118 17.1602 14.2589C17.2504 13.3762 16.9372 12.6257 16.3427 11.9962C15.1748 10.7595 12.8818 10.1037 11.0347 11.4783C10.1598 12.1294 9.44619 12.9357 8.77929 13.7932C7.22642 15.79 5.69485 17.8022 4.4615 20.0305C2.57177 23.4446 1.17773 27.0502 0.492817 30.9205C0.180666 32.6848 -0.0876986 34.46 0.0276157 36.2645C0.140827 38.0381 0.878862 39.4275 2.49813 40.2001C4.56274 41.1853 6.7712 39.8821 6.98344 37.4273C7.03221 36.8629 6.98843 36.3076 6.80762 35.7693C6.46313 34.7433 5.45016 34.1012 4.27506 34.1589C3.3311 34.2055 2.36376 35.0506 2.14377 36.0209C1.99086 36.6958 2.36389 37.633 2.95729 37.9605C3.1632 38.0742 3.42341 38.1192 3.66152 38.1288C3.97473 38.1418 4.19077 37.8666 4.18564 37.5356C4.18078 37.2182 4.00038 37.0381 3.66495 37.0156C3.33637 36.9937 3.21816 36.8436 3.25787 36.4991C3.33584 35.8226 3.82431 35.328 4.45611 35.2861C5.09251 35.244 5.67934 35.692 5.81161 36.3542C5.9527 37.0602 5.88314 37.7509 5.56389 38.4005C5.21795 39.1042 4.62296 39.4253 3.85679 39.3548C2.15179 39.1976 1.3956 38.1333 1.23217 36.6064C1.0448 34.8564 1.20771 33.1132 1.53827 31.3969C1.79494 30.0637 2.16599 28.7534 2.48853 27.4336C2.51404 27.3292 2.5573 27.2295 2.60739 27.0833Z" fill="#18BF3D"/>
<path d="M69.1487 24.0869C69.1818 24.0852 69.2151 24.0835 69.2485 24.0816C69.3213 24.7071 69.4452 25.3317 69.4549 25.9583C69.4683 26.82 69.1421 27.5399 68.3676 27.9818C68.3017 28.0194 68.2266 28.04 68.1559 28.0684C67.6698 26.7821 68.1841 25.0589 69.1487 24.0869ZM70.4916 27.1308C70.7654 28.2418 71.0705 29.346 71.3063 30.4655C71.7189 32.4256 71.9088 34.4124 71.8345 36.4197C71.8134 36.9873 71.6561 37.5236 71.3822 38.0194C70.8348 39.0101 69.627 39.5612 68.547 39.3093C68.1685 39.221 67.8508 39.0186 67.6382 38.6817C67.2007 37.9884 67.0124 37.234 67.1713 36.4128C67.3278 35.6032 68.0574 35.1361 68.8391 35.3313C69.2924 35.4445 69.8257 36.2164 69.7778 36.6894C69.7547 36.9182 69.6172 37.0037 69.4067 37.0169C69.0166 37.0416 68.8211 37.2386 68.8393 37.5757C68.8577 37.9201 69.0964 38.1356 69.4618 38.1412C70.0273 38.1502 70.4204 37.8772 70.6539 37.3626C71.266 36.0144 70.4627 34.4613 69.0319 34.2185C67.1613 33.9009 65.7553 35.2998 65.9977 37.2278C66.0759 37.8486 66.2529 38.4302 66.571 38.9653C67.3278 40.2389 68.5293 40.746 69.9501 40.4026C71.6093 40.0016 72.4615 38.8364 72.8098 37.2177C73.0656 36.0289 73.0256 34.8209 72.9095 33.6194C72.6653 31.0944 72.1478 28.6274 71.3356 26.2278C69.5671 21.004 66.7175 16.4639 62.9966 12.4797C62.2892 11.7225 61.4882 11.0938 60.4707 10.8191C58.8786 10.3893 56.8256 11.3486 56.107 12.8599C55.7915 13.5236 55.7569 14.2085 55.991 14.9017C56.4498 16.2601 57.227 17.2989 58.6952 17.5881C59.6604 17.7783 60.7959 17.2679 61.3108 16.4188C61.8464 15.5356 61.855 14.6297 61.302 13.7529C60.6833 12.7715 59.6097 12.5296 58.7131 13.1392C58.1874 13.4967 57.9487 14.0732 58.0823 14.6629C58.1555 14.9863 58.4032 15.1712 58.7001 15.1239C59.04 15.07 59.2067 14.8217 59.1945 14.472C59.1897 14.3359 59.2545 14.1577 59.3495 14.0667C59.5062 13.9163 59.7165 13.8733 59.9354 13.9759C60.4444 14.2141 60.7355 14.8925 60.5583 15.4409C60.2988 16.2435 59.4016 16.6939 58.6086 16.4193C57.7455 16.1208 56.9847 15.0585 56.9675 14.1281C56.9539 13.3959 57.3151 12.8647 57.861 12.4523C58.9918 11.5977 60.6102 11.6732 61.6155 12.6755C63.3077 14.3629 64.839 16.1988 66.1173 18.2333C66.9897 19.6221 67.7607 21.0775 68.5832 22.4996C68.7126 22.7234 68.7007 22.8705 68.5082 23.0716C67.5649 24.0569 66.9823 25.2277 66.87 26.6184C66.8007 27.4768 66.9697 28.2913 67.3381 29.0623C67.4651 29.3281 67.7125 29.4306 68.0071 29.3476C69.1201 29.033 69.9605 28.3984 70.3478 27.239C70.3589 27.2061 70.378 27.176 70.3932 27.1445C70.426 27.14 70.4588 27.1353 70.4916 27.1308Z" fill="#18BF3D"/>
<path d="M37.1301 7.45329C37.1301 5.72642 37.1301 4.0731 37.1301 2.34031C37.3073 2.62823 37.458 2.83991 37.575 3.06961C37.9158 3.73825 38.2439 4.41374 38.5751 5.08735C38.6781 5.29675 38.6858 5.48879 38.6263 5.73866C38.4293 6.56759 37.8396 7.00103 37.1301 7.45329ZM35.9094 2.23906C35.9359 2.24781 35.9625 2.25667 35.9891 2.26555C35.9891 3.96619 35.9891 5.66698 35.9891 7.37893C35.4974 7.17531 34.9162 6.68795 34.6923 6.25937C34.4664 5.82714 34.3229 5.3925 34.589 4.89641C34.8514 4.40702 35.0409 3.87703 35.2853 3.37663C35.4751 2.98811 35.7001 2.61749 35.9094 2.23906ZM39.5704 11.6576C39.5007 12.5313 39.3463 13.3846 39.0474 14.2081C38.8294 14.8091 38.5421 15.3726 38.0588 15.7949C37.8249 15.9993 37.5446 16.1481 37.2234 16.3633C37.2113 16.1482 37.2007 16.0395 37.1999 15.9307C37.1942 15.1565 37.2054 14.3818 37.1786 13.6085C37.167 13.2735 37.2193 13.0395 37.5739 12.9423C37.7283 12.8998 37.8715 12.8007 38.0088 12.7098C38.5248 12.3676 39.0363 12.0184 39.5704 11.6576ZM36.0315 11.7192C36.0076 11.7414 35.9838 11.7635 35.9601 11.7857C35.4913 11.4398 34.9949 11.1264 34.5599 10.7407C33.8319 10.0953 33.469 9.28506 33.6795 8.27295C33.7543 7.91362 33.8135 7.55093 33.8911 7.12717C34.4865 7.82607 35.1707 8.27941 35.91 8.65878C35.9784 8.69387 36.027 8.83683 36.0283 8.93043C36.0408 9.77079 36.0409 10.6113 36.0432 11.4518C36.0434 11.5408 36.0356 11.63 36.0315 11.7192ZM33.5707 11.4205C33.6209 11.4429 33.6578 11.4494 33.6807 11.4713C34.3411 12.1023 35.1027 12.5746 35.9071 12.985C35.9849 13.0247 36.0511 13.1697 36.054 13.268C36.0739 13.9582 36.0773 14.6491 36.0836 15.3398C36.0864 15.6633 36.084 15.9867 36.084 16.3651C35.8565 16.2567 35.6609 16.1827 35.4844 16.0755C34.9904 15.7753 34.6522 15.3263 34.3922 14.8127C33.8574 13.757 33.6807 12.6102 33.5707 11.4205ZM37.2339 11.8502C37.2045 11.8048 37.1871 11.7904 37.1869 11.7758C37.1719 10.8059 37.1539 9.83589 37.1526 8.86587C37.1525 8.78559 37.2499 8.68123 37.328 8.62893C37.6863 8.38954 38.0691 8.18649 38.4131 7.92841C38.7103 7.70545 38.967 7.42613 39.2932 7.12381C39.3998 7.82177 39.5153 8.47965 39.5919 9.14223C39.6151 9.34382 39.5714 9.57621 39.4903 9.76381C39.0421 10.8016 38.1482 11.3358 37.2339 11.8502ZM40.7657 10.2563C40.7635 7.60378 40.0203 5.15541 38.7379 2.87757C38.2432 1.99901 37.6408 1.18163 37.058 0.358203C36.7049 -0.140453 36.1884 -0.10751 35.8131 0.390876C35.0635 1.38658 34.4303 2.4557 33.9154 3.5957C32.902 5.83938 32.3164 8.18083 32.4217 10.6712C32.4867 12.2103 32.6975 13.7219 33.3457 15.1343C33.7851 16.091 34.4053 16.8802 35.3923 17.2967C36.6124 17.8119 37.9475 17.5183 38.9136 16.5177C39.6893 15.7143 40.0907 14.7081 40.362 13.6382C40.6431 12.5301 40.7631 11.4004 40.7657 10.2563Z" fill="#18BF3D"/>
<path d="M36.6722 35.3762C36.0371 34.3185 35.4254 33.3002 34.814 32.282C33.471 30.0453 32.1247 27.8108 30.7872 25.5708C30.3441 24.8286 29.9361 24.068 29.7742 23.1974C29.599 22.2558 29.809 21.4205 30.4906 20.7613C31.2298 20.0462 32.111 19.614 33.1533 19.6328C33.8509 19.6452 34.3517 20.267 34.271 20.98C34.2259 21.3786 34.0341 21.6102 33.634 21.6672C33.4148 21.6984 33.1772 21.6862 32.9618 21.6336C32.6138 21.5482 32.5417 21.324 32.7156 20.9957C32.8843 20.6776 32.8432 20.4356 32.5917 20.2645C32.3137 20.0754 31.9901 20.1213 31.7808 20.3794C31.3774 20.8773 31.3952 21.591 31.825 22.1364C32.5673 23.0785 33.884 23.1582 34.7576 22.3048C35.3376 21.7381 35.5169 21.038 35.3173 20.2541C35.0947 19.3788 34.518 18.846 33.6679 18.6345C31.5491 18.1073 29.1309 19.7493 28.6919 21.9928C28.4932 23.0085 28.6456 23.9718 29.1181 24.8689C29.5683 25.723 30.0641 26.5532 30.5597 27.3814C32.3856 30.4332 34.2203 33.4795 36.0502 36.5288C36.1776 36.7413 36.3093 36.9318 36.585 36.9562C36.9028 36.9845 37.1179 36.8617 37.2856 36.5801C38.3497 34.7933 39.424 33.0126 40.4943 31.2296C41.6076 29.3749 42.7233 27.5218 43.8315 25.6638C44.2419 24.9757 44.5824 24.2573 44.7065 23.4461C45.0445 21.2386 43.5628 19.0924 41.4156 18.6844C40.7153 18.5512 40.0198 18.5072 39.3339 18.7506C38.2643 19.1304 37.7001 20.408 38.1018 21.5286C38.4816 22.5889 39.6941 23.1702 40.6968 22.7732C41.4461 22.4766 41.9283 21.7798 41.8384 21.0532C41.809 20.8153 41.6991 20.566 41.5613 20.3694C41.328 20.0361 40.7933 20.0777 40.6155 20.4442C40.549 20.5816 40.5738 20.8096 40.6378 20.9605C40.7971 21.336 40.7348 21.5374 40.3571 21.6681C39.9026 21.8252 39.4138 21.6778 39.2143 21.3234C38.9752 20.8989 39.0654 20.3085 39.4341 19.9937C39.8689 19.6222 40.3763 19.5974 40.9113 19.6842C42.249 19.9012 43.3161 20.8845 43.572 22.1752C43.697 22.8066 43.6046 23.4286 43.356 24.012C43.1415 24.5154 42.905 25.0146 42.6255 25.4829C40.6991 28.7121 38.759 31.9328 36.8228 35.1557C36.7856 35.2174 36.7417 35.2749 36.6722 35.3762Z" fill="#18BF3D"/>
<path d="M46.28 12.5436C46.2114 12.4055 46.1313 12.2719 46.0759 12.1284C45.3317 10.1996 45.4708 8.33231 46.4722 6.53483C47.061 5.47795 47.9558 4.83526 49.1117 4.56899C50.005 4.36337 50.9032 4.33835 51.7987 4.54034C52.1728 4.62466 52.5372 4.75403 52.9059 4.86297C52.9002 4.88851 52.8943 4.91406 52.8886 4.93962C48.996 5.92483 46.9239 8.55595 46.28 12.5436ZM44.4827 9.52865C44.4756 11.8151 45.265 13.4371 46.5875 14.8209C46.8619 15.1078 47.1526 15.3786 47.4384 15.6538C48.8099 16.9731 48.9992 18.7123 48.3434 20.3573C48.0572 21.0751 47.634 21.7014 47.106 22.2567C46.8457 22.5307 46.8356 22.7957 47.0557 23.0522C47.2838 23.3181 47.6106 23.3537 47.8508 23.0999C49.1263 21.7529 49.915 20.1843 49.8363 18.2619C49.7926 17.1965 49.4315 16.2361 48.7268 15.4342C48.3302 14.9831 47.9071 14.5563 47.5057 14.1095C47.4334 14.0293 47.3657 13.9033 47.3682 13.8003C47.3993 12.5293 47.632 11.2999 48.1293 10.1291C49.0873 7.87306 50.8367 6.62655 53.1139 6.07383C53.5541 5.96705 54.0146 5.93949 54.4678 5.90009C54.7423 5.87627 54.945 5.77931 55.0348 5.50417C55.1204 5.24206 55.0135 5.02783 54.791 4.82033C53.9702 4.05486 53.0074 3.59843 51.9204 3.41151C50.4545 3.15963 49.0264 3.29867 47.6625 3.92119C46.6089 4.4021 45.8873 5.24287 45.3534 6.26493C44.7704 7.38153 44.5011 8.58069 44.4827 9.52865Z" fill="#18BF3D"/>
<path d="M20.0495 4.93291C20.2238 4.85679 20.3196 4.80837 20.4198 4.77207C21.5216 4.37185 22.6465 4.29843 23.79 4.53699C24.6027 4.70644 25.3683 5.00715 25.9089 5.67431C27.2354 7.31135 27.733 9.17968 27.2545 11.2722C27.1551 11.7069 26.9485 12.1158 26.7913 12.5366C26.7577 12.5361 26.7238 12.5355 26.6903 12.535C26.1278 8.52516 24.0382 5.90237 20.0495 4.93291ZM22.3594 3.28296C20.7672 3.29695 19.354 3.77005 18.1658 4.87575C17.978 5.05044 17.9169 5.26333 17.9968 5.50983C18.0874 5.78861 18.2951 5.89256 18.5684 5.89579C19.4943 5.90668 20.3773 6.12508 21.2271 6.48912C23.5134 7.46908 24.8447 9.26117 25.3919 11.6902C25.5367 12.333 25.5899 12.9985 25.661 13.6565C25.6742 13.7801 25.6034 13.945 25.5181 14.0423C25.1833 14.4251 24.8054 14.7694 24.4831 15.1621C23.1782 16.7522 22.8193 18.5263 23.5409 20.4955C23.8953 21.4625 24.4188 22.3207 25.1303 23.0545C25.4424 23.3763 25.8708 23.3107 26.0587 22.9202C26.1867 22.6545 26.0979 22.4387 25.9078 22.2385C25.3017 21.5995 24.8411 20.865 24.5583 20.0203C24.0826 18.5995 24.2237 17.2782 25.1949 16.1059C25.5607 15.6642 25.9285 15.2205 26.3326 14.8166C27.3119 13.8377 28.0977 12.7385 28.3792 11.344C28.8382 9.06981 28.3312 7.00713 26.9582 5.17323C26.1611 4.10827 25.0188 3.65575 23.7712 3.44245C23.3049 3.36271 22.8303 3.3346 22.3594 3.28296Z" fill="#18BF3D"/>
<path d="M37.1359 63.6039C37.1567 63.5949 37.1777 63.5858 37.1985 63.5767C37.3572 63.9073 37.5223 64.2347 37.6725 64.5695C37.8839 65.0407 37.6385 65.613 37.1359 65.8079C37.1359 65.0687 37.1359 64.3362 37.1359 63.6039ZM35.9841 65.8262C35.3749 65.4567 35.2325 65.0373 35.4838 64.4361C35.5732 64.2227 35.6687 64.0117 35.7654 63.8017C35.8145 63.695 35.8723 63.5926 35.9261 63.4883C35.9455 63.4974 35.9647 63.5065 35.9841 63.5157C35.9841 64.2749 35.9841 65.0341 35.9841 65.8262ZM37.1712 71.8083C37.1712 71.2903 37.1693 70.7725 37.1748 70.2545C37.1753 70.2091 37.2151 70.1459 37.2546 70.1222C37.6056 69.9122 37.9608 69.7093 38.3526 69.4823C38.1819 70.3921 38.0209 71.2611 37.1712 71.8083ZM34.7891 69.3711C35.2031 69.6173 35.566 69.8299 35.9248 70.0494C35.9725 70.0787 36.0315 70.1417 36.0321 70.1899C36.0398 70.7446 36.037 71.2995 36.037 71.9287C35.128 71.279 34.9442 70.3537 34.7891 69.3711ZM34.8998 66.4877C35.2444 66.7081 35.5915 66.9273 35.9343 67.1526C35.9736 67.1785 36.014 67.2393 36.0145 67.2845C36.0201 67.7751 36.0179 68.2659 36.0179 68.7642C34.9253 68.2195 34.5514 67.3833 34.8998 66.4877ZM37.1347 68.8658C37.1347 68.3121 37.1334 67.8017 37.1372 67.2911C37.1375 67.2519 37.162 67.1969 37.1928 67.1761C37.5463 66.9373 37.9028 66.7041 38.2593 66.4687C38.5808 67.6335 38.2493 68.3702 37.1347 68.8658ZM39.5706 68.3175C39.5371 65.789 38.7361 63.7425 37.4298 61.8771C37.313 61.7102 37.1879 61.5491 37.0625 61.3889C36.6944 60.9191 36.2562 60.9273 35.8895 61.4167C35.2922 62.2135 34.811 63.0798 34.4284 64.0042C33.554 66.1169 33.3277 68.2843 33.9061 70.5173C34.0808 71.1917 34.3436 71.8293 34.8207 72.3433C35.9229 73.5307 37.4161 73.4421 38.426 72.2366C39.0212 71.5263 39.2775 70.657 39.4212 69.7554C39.5077 69.2139 39.5361 68.6629 39.5706 68.3175Z" fill="#18BF3D"/>
<path d="M31.7586 64.1976C31.0168 64.1347 30.254 63.3559 30.1599 62.6062C30.0623 61.8286 30.652 60.9482 31.5039 60.6448C31.1338 61.8638 31.2112 63.0363 31.7586 64.1976ZM31.1868 59.4672C30.8928 59.6548 30.5808 59.8288 30.2958 60.0407C29.7123 60.475 29.2438 61.0128 29.1136 61.7647C28.76 63.8074 30.6482 65.9666 32.848 65.3182C33.3225 65.1783 33.4631 64.7957 33.1946 64.4024C32.1521 62.8743 32.1386 61.384 33.1394 59.8109C33.2327 59.6645 33.3171 59.4688 33.3037 59.3044C33.281 59.0259 33.0686 58.8639 32.8004 58.8304C32.3577 58.7751 31.9702 58.5933 31.6446 58.2966C29.9471 56.7499 29.0779 54.8087 29.2078 52.4855C29.325 50.3868 30.1122 48.5003 31.2526 46.7661C31.4715 46.4333 31.7202 46.1209 31.956 45.7999C32.1849 45.4883 32.1982 45.3074 31.9974 44.9828C30.3419 42.3066 28.6857 39.6309 27.0278 36.9563C26.8116 36.6073 26.496 36.5199 26.1907 36.7113C25.937 36.8705 25.8561 37.1419 25.995 37.4115C26.0757 37.5681 26.1755 37.7144 26.2683 37.8644C27.7486 40.2561 29.2264 42.6496 30.715 45.0363C30.8513 45.2551 30.862 45.3949 30.7018 45.6151C29.4535 47.3297 28.5138 49.1997 28.1811 51.3301C27.7526 54.0724 28.5295 56.4821 30.2467 58.592C30.5161 58.9232 30.8733 59.1793 31.1868 59.4672Z" fill="#18BF3D"/>
<path d="M41.2685 64.1985C41.822 63.031 41.8744 61.8499 41.5231 60.6261C42.4348 60.9633 42.9715 61.8295 42.83 62.6866C42.7061 63.4365 41.9512 64.1878 41.2685 64.1985ZM41.8315 59.4462C43.5468 58.1801 44.4014 56.3837 44.8229 54.3343C45.1097 52.9407 44.9192 51.5651 44.5609 50.2101C44.1119 48.5118 43.3311 46.9782 42.3015 45.5758C42.1702 45.397 42.1621 45.279 42.2809 45.0885C43.8321 42.5995 45.3768 40.1061 46.9119 37.6066C47.0148 37.4391 47.1036 37.1939 47.0603 37.0215C47.0206 36.8649 46.8104 36.7091 46.6416 36.6421C46.4279 36.557 46.2063 36.6399 46.0676 36.8537C45.921 37.0794 45.781 37.3093 45.6393 37.5382C44.1197 39.9923 42.6004 42.4467 41.0812 44.9011C40.8143 45.3325 40.8236 45.4766 41.1358 45.8783C42.3753 47.4731 43.3162 49.2257 43.6797 51.2447C44.1411 53.8075 43.5623 56.0822 41.7369 57.9649C41.3058 58.4095 40.8277 58.7582 40.1874 58.8403C39.7468 58.897 39.5814 59.3521 39.8322 59.7342C40.2085 60.307 40.4899 60.9182 40.5897 61.607C40.7344 62.6047 40.4547 63.4905 39.9031 64.3026C39.5413 64.8355 39.6637 65.177 40.2782 65.3405C41.9461 65.7843 43.7392 64.4766 43.9322 62.7018C44.0495 61.6215 43.6586 60.7827 42.8489 60.1307C42.5354 59.8783 42.1811 59.679 41.8315 59.4462Z" fill="#18BF3D"/>
<path d="M25.1022 45.6073C25.2243 46.2322 24.7199 47.4057 24.2034 47.661C24.1763 47.1621 24.1362 46.6733 24.3101 46.1993C24.4579 45.7961 24.7071 45.6139 25.1022 45.6073ZM23.1368 56.4231C23.7777 56.4169 24.4717 56.0881 24.9888 55.4417C25.642 54.6254 25.8875 53.6745 25.6709 52.6331C25.5205 51.9106 25.0362 51.4901 24.3506 51.3274C23.643 51.1595 22.9791 51.2638 22.4531 51.8215C22.1118 52.1831 22.069 52.6357 22.1982 53.105C22.2792 53.3991 22.5224 53.5427 22.8108 53.4899C23.1052 53.4361 23.2984 53.1942 23.2845 52.897C23.2688 52.5621 23.3566 52.449 23.6782 52.3907C24.1898 52.2981 24.6084 52.6561 24.6006 53.1922C24.5933 53.6891 24.4508 54.1485 24.1884 54.5669C23.8167 55.1595 23.2899 55.4101 22.6795 55.2901C22.0649 55.1694 21.5808 54.6837 21.455 54.0379C21.2824 53.1507 21.4952 52.3355 22.0188 51.6339C22.4044 51.1174 22.8677 50.6591 23.3158 50.1943C23.8863 49.6027 24.5054 49.0579 25.0498 48.4433C25.6635 47.7499 26.1024 46.9357 26.275 46.005C26.4818 44.8886 25.791 44.2305 24.7048 44.4955C24.1148 44.6394 23.6637 44.9678 23.418 45.5637C23.0314 46.5009 22.9504 47.4586 23.2102 48.4394C23.2606 48.6302 23.227 48.7402 23.0822 48.8682C22.3347 49.5289 21.6176 50.2209 21.0446 51.0533C20.3048 52.1278 20.0639 53.2841 20.4668 54.557C20.8391 55.7337 21.7399 56.4155 23.1368 56.4231Z" fill="#18BF3D"/>
<path d="M48.8071 47.7246C48.1516 47.211 47.7327 46.2118 47.9215 45.6452C48.1428 45.6044 48.3377 45.6476 48.4748 45.8473C48.8647 46.4162 48.9085 47.0461 48.8071 47.7246ZM50.1109 56.4753C51.9388 56.4002 52.9334 54.7154 52.7288 53.1177C52.5479 51.7056 51.7867 50.6336 50.82 49.6818C50.5306 49.3969 50.2296 49.1234 49.9217 48.8601C49.7891 48.7468 49.7653 48.641 49.808 48.4746C50.0257 47.628 50.0596 46.7772 49.7877 45.9361C49.5077 45.0704 48.884 44.5945 48.0331 44.4346C47.3412 44.3046 46.7626 44.8282 46.7253 45.5626C46.6974 46.1133 46.8668 46.611 47.0965 47.0944C47.4816 47.9045 48.0319 48.5832 48.6783 49.1881C49.2777 49.7493 49.8891 50.299 50.4591 50.8904C51.2049 51.6642 51.6393 52.591 51.6037 53.7061C51.5728 54.6774 50.9584 55.317 50.0842 55.2937C49.0162 55.265 48.1209 53.9909 48.4378 52.9505C48.5628 52.5402 49.1939 52.2365 49.5655 52.4334C49.6582 52.4825 49.7131 52.6406 49.7475 52.76C49.7823 52.8805 49.7449 53.0241 49.7836 53.1422C49.8595 53.3742 50.1259 53.5204 50.3806 53.4952C50.6303 53.4705 50.7699 53.3194 50.8356 53.0784C51.0143 52.4233 50.7606 51.8181 50.1683 51.4942C49.1351 50.9293 47.2569 51.3192 47.2725 53.2677C47.2836 54.6118 47.9688 55.7646 49.0845 56.2136C49.4099 56.3444 49.7678 56.3904 50.1109 56.4753Z" fill="#18BF3D"/>
<path d="M60.3 21.6928C59.8267 21.5292 59.5642 21.1412 59.6618 20.7754C59.765 20.3893 60.2141 20.1728 60.6691 20.294C61.2307 20.4437 61.6577 20.8053 62.0403 21.2277C62.8665 22.1396 63.1571 23.2613 63.2256 24.4636C63.3341 26.3705 62.9362 28.192 62.3226 29.9762C62.0744 30.698 61.8204 31.4186 61.7812 32.1946C61.7264 33.2758 62.3286 34.0022 63.3399 34.07C64.0599 34.1181 64.712 33.5877 64.8978 32.8029C65.0693 32.079 64.7284 31.3541 64.059 31.0796C63.9124 31.0193 63.714 31.0209 63.5602 31.0666C63.3347 31.1338 63.209 31.3366 63.1887 31.5761C63.1688 31.8102 63.3267 31.9318 63.4994 32.0609C63.6238 32.1534 63.7841 32.3377 63.7652 32.453C63.7411 32.5993 63.5744 32.7657 63.4286 32.8368C63.153 32.9714 62.8855 32.7684 62.9086 32.4029C62.9372 31.9528 63.0147 31.498 63.1337 31.0632C63.3894 30.1302 63.7266 29.2196 63.9548 28.2806C64.2881 26.9078 64.4525 25.5077 64.3141 24.0892C64.1282 22.184 63.4387 20.5688 61.7455 19.5557C61.2576 19.2637 60.7387 19.0766 60.1573 19.1268C59.4158 19.1906 58.7289 19.8409 58.5655 20.6462C58.4052 21.4364 58.7265 22.1364 59.4288 22.5249C59.7737 22.7158 60.1401 22.8097 60.5345 22.7822C61.3031 22.7281 61.7998 21.8832 61.4829 21.1653C61.3217 20.8001 60.8859 20.5994 60.5201 20.722C60.2521 20.8114 60.1014 21.136 60.1943 21.4316C60.2208 21.516 60.2604 21.596 60.3 21.6928Z" fill="#18BF3D"/>
<path d="M12.695 21.7336C12.7509 21.6044 12.8196 21.5001 12.8409 21.3867C12.9354 20.8835 12.5311 20.5645 12.027 20.7365C11.5359 20.9041 11.3 21.4947 11.513 22.0337C11.6574 22.3991 11.9331 22.6221 12.2975 22.7137C12.9714 22.8833 13.584 22.726 14.0558 22.2116C14.5089 21.7175 14.595 21.1005 14.4026 20.4581C14.0963 19.4345 13.1166 18.8724 12.1183 19.1863C10.6755 19.64 9.74139 20.6696 9.17455 22.0677C8.65742 23.3431 8.60022 24.6839 8.71395 26.0348C8.85649 27.7284 9.25029 29.3639 9.86472 30.9453C9.99161 31.2721 10.0696 31.6225 10.1345 31.9689C10.1677 32.1457 10.1366 32.3401 10.1081 32.5223C10.0775 32.7176 9.98635 32.8801 9.75691 32.8829C9.5109 32.8859 9.32471 32.7679 9.24582 32.5355C9.16193 32.2881 9.3351 32.1568 9.52221 32.0561C9.71312 31.9532 9.88812 31.8069 9.82133 31.5804C9.76624 31.3931 9.63895 31.1904 9.48472 31.0837C9.3685 31.0032 9.14076 31.0137 8.99402 31.0697C8.27598 31.3432 7.93213 32.1301 8.16289 32.9113C8.40576 33.7327 9.148 34.2252 9.89615 34.0609C10.8853 33.844 11.4305 33.016 11.2256 31.932C11.0966 31.2489 10.8916 30.5775 10.6792 29.9148C10.1159 28.1585 9.67091 26.3832 9.77978 24.5133C9.8375 23.5232 10.0716 22.5793 10.5875 21.7243C10.9875 21.0613 11.57 20.6261 12.2641 20.3415C12.7923 20.1249 13.1696 20.2744 13.3185 20.7304C13.4583 21.1583 13.2193 21.5552 12.695 21.7336Z" fill="#18BF3D"/>
<path d="M37.7038 27.2533C38.3192 26.4879 38.3154 25.7717 37.7414 24.9998C38.4884 25.2261 39.0711 25.5933 39.5892 26.1197C39.0639 26.653 38.4754 27.0259 37.7038 27.2533ZM35.1768 25.6522C34.9963 26.2857 35.1792 26.7817 35.5997 27.2822C34.8097 27.0425 34.2017 26.6741 33.67 26.1082C34.3132 25.5431 34.9244 24.9786 35.8491 25.0667C36.1398 25.0943 36.3833 25.2851 36.4254 25.5674C36.4741 25.8937 36.3113 26.1655 36.0088 26.2626C35.7308 26.3518 35.4254 26.2217 35.2927 25.9519C35.253 25.871 35.2269 25.7831 35.1768 25.6522ZM36.6429 28.5227C38.2501 28.4789 39.5933 27.8293 40.648 26.5625C40.8905 26.2713 40.8925 25.9861 40.6716 25.7009C38.6499 23.091 34.7246 23.0621 32.6542 25.6418C32.3815 25.9817 32.3763 26.2571 32.6513 26.593C33.686 27.8578 35.0137 28.4939 36.6429 28.5227Z" fill="#18BF3D"/>
<path d="M63.4921 63.7655C63.5786 63.7145 63.7397 63.6477 63.8672 63.5395C65.0766 62.5123 66.1253 61.3275 67.0094 60.0039C67.7038 58.9646 68.3283 57.8757 68.9721 56.8017C69.1749 56.4634 69.116 56.1806 68.8502 55.9851C68.5353 55.7539 68.2332 55.8474 68.0092 56.2221C67.4237 57.2017 66.86 58.1967 66.2325 59.1474C65.3345 60.5081 64.2697 61.7259 63.0315 62.7781C62.8505 62.9321 62.7252 63.1083 62.8311 63.3606C62.9389 63.6167 63.1368 63.7462 63.4921 63.7655Z" fill="#18BF3D"/>
<path d="M9.55619 63.767C9.90344 63.7418 10.0982 63.6115 10.1934 63.3663C10.2805 63.1418 10.2003 62.9499 10.0192 62.7955C7.97152 61.0539 6.46928 58.8719 5.1769 56.5205C5.12326 56.4229 5.07158 56.3239 5.01715 56.2267C4.81611 55.8678 4.56155 55.7734 4.2515 55.9415C3.93922 56.1109 3.85284 56.4258 4.03863 56.7751C4.8432 58.2874 5.74401 59.7354 6.80734 61.0735C7.52328 61.9745 8.30089 62.8145 9.17921 63.5518C9.30662 63.6586 9.47099 63.7194 9.55619 63.767Z" fill="#18BF3D"/>
<path d="M39.049 0.730556C39.0461 1.07832 39.2387 1.29255 39.6065 1.32389C40.4251 1.39342 41.2467 1.43267 42.0631 1.52304C43.9489 1.73203 45.7921 2.13144 47.5485 2.89112C47.922 3.05264 48.2478 2.93322 48.4019 2.59607C48.5394 2.29538 48.447 2.03851 48.0982 1.91371C47.135 1.56944 46.1771 1.19775 45.1928 0.930531C43.3957 0.4425 41.5493 0.270085 39.6953 0.191817C39.2727 0.173932 39.0522 0.366381 39.049 0.730556Z" fill="#18BF3D"/>
<path d="M33.2047 0.189458C30.7519 0.308878 28.3352 0.636746 26.0065 1.47698C25.6454 1.6073 25.2907 1.75684 24.9373 1.90827C24.61 2.0488 24.5052 2.25698 24.6003 2.53924C24.7023 2.8417 25.0306 3.03791 25.3188 2.94928C25.5103 2.89024 25.6919 2.79852 25.879 2.72443C27.4987 2.08416 29.1835 1.72268 30.9032 1.52876C31.7283 1.43556 32.5603 1.40719 33.386 1.31884C33.5631 1.29987 33.7851 1.19228 33.8855 1.05067C34.1583 0.666194 33.8913 0.198344 33.4238 0.189603C33.3507 0.188258 33.2777 0.189458 33.2047 0.189458Z" fill="#18BF3D"/>
<path d="M36.7335 48.3945C37.3061 49.1697 37.8038 49.9258 38.1558 50.7706C38.2691 51.0429 38.3521 51.3325 38.413 51.6221C38.5492 52.2716 38.2821 52.7622 37.6746 52.999C37.1301 53.2114 36.5719 53.2266 36.0114 53.0684C35.1999 52.8394 34.8842 52.2977 35.0926 51.4584C35.3774 50.3116 36.0483 49.3789 36.7335 48.3945ZM36.6838 45.9294C36.2807 46.5561 35.9015 47.127 35.5413 47.7104C35.0883 48.4437 34.6436 49.1829 34.2085 49.9276C33.7273 50.751 33.7222 51.6278 33.9705 52.5249C34.3012 53.7202 35.0959 54.4136 36.3158 54.4864C36.8102 54.5158 37.3244 54.4726 37.808 54.3629C38.9146 54.1121 39.5243 53.2834 39.602 52.117C39.677 50.995 39.3799 50.0025 38.7592 49.0856C38.125 48.1489 37.5174 47.1933 36.8978 46.2464C36.8382 46.1552 36.7761 46.0657 36.6838 45.9294Z" fill="#DCEBE9"/>
</g>
<defs>
<filter id="filter0_d_231_161" x="0.151978" y="19.4844" width="73.1579" height="52.1821" filterUnits="userSpaceOnUse" color-interpolation-filters="sRGB">
<feFlood flood-opacity="0" result="BackgroundImageFix"/>
<feColorMatrix in="SourceAlpha" type="matrix" values="0 0 0 0 0 0 0 0 0 0 0 0 0 0 0 0 0 0 127 0" result="hardAlpha"/>
<feOffset/>
<feGaussianBlur stdDeviation="3.5"/>
<feComposite in2="hardAlpha" operator="out"/>
<feColorMatrix type="matrix" values="0 0 0 0 1 0 0 0 0 1 0 0 0 0 1 0 0 0 0.83 0"/>
<feBlend mode="normal" in2="BackgroundImageFix" result="effect1_dropShadow_231_161"/>
<feBlend mode="normal" in="SourceGraphic" in2="effect1_dropShadow_231_161" result="shape"/>
</filter>
<clipPath id="clip0_231_161">
<rect width="73" height="76" fill="white"/>
</clipPath>
</defs>
</svg>
